<svg width="118" height="91" viewBox="0 0 118 91" fill="none" xmlns="http://www.w3.org/2000/svg">
<path d="M73.75 0H44.25C40.179 0 36.875 2.81139 36.875 6.27543V15.6886H44.25V9.41314C44.25 7.68112 45.8983 6.27543 47.9375 6.27543H70.0625C72.1017 6.27543 73.75 7.68112 73.75 9.41314V15.6886H81.125V6.27543C81.125 2.81453 77.821 0 73.75 0Z" fill="#324D5B"/>
<path d="M7.375 15.6917H110.625C114.696 15.6917 118 18.5031 118 21.9703V84.7246C118 88.1886 114.696 91 110.625 91H7.375C3.304 91 0 88.1886 0 84.7246V21.9703C0 18.5031 3.304 15.6917 7.375 15.6917V15.6917Z" fill="#E2574C"/>
<path d="M77.4375 47.0657H66.375V37.6588C66.375 35.9237 64.7267 34.5148 62.6875 34.5148H55.3125C53.2733 34.5148 51.625 35.9237 51.625 37.6588V47.0657H40.5625C38.5233 47.0657 36.875 48.4745 36.875 50.2034V56.4788C36.875 58.2171 38.5233 59.6228 40.5625 59.6228H51.625V69.0297C51.625 70.768 53.2733 72.1674 55.3125 72.1674H62.6875C64.7267 72.1674 66.375 70.768 66.375 69.0297V59.6228H77.4375C79.4767 59.6228 81.125 58.2171 81.125 56.4788V50.2034C81.125 48.4777 79.4767 47.0657 77.4375 47.0657Z" fill="white"/>
<path d="M7.375 15.6917C3.304 15.6917 0 18.5031 0 21.9703V37.6557L25.8125 15.6917H7.375V15.6917ZM7.33813 90.9969H25.8125L0 69.0297V84.7246C0 88.1792 3.28187 90.9812 7.33813 90.9969V90.9969ZM110.625 15.6917H92.1875L118 37.6557V21.9703C118 18.5031 114.696 15.6917 110.625 15.6917V15.6917ZM110.662 90.9969C114.718 90.978 118 88.1792 118 84.7246V69.0297L92.1875 90.9969H110.662V90.9969Z" fill="#BF392C"/>
</svg>
