<svg width="118" height="99" viewBox="0 0 118 99" fill="none" xmlns="http://www.w3.org/2000/svg">
    <g clip-path="url(#clip0_226_382)">
        <path d="M70.9695 22.8257H64.9294V17.7581C64.9294 17.3479 64.7351 16.9544 64.3894 16.6643C64.0436 16.3742 63.5746 16.2112 63.0857 16.2112H54.9141C54.4252 16.2112 53.9562 16.3742 53.6104 16.6643C53.2647 16.9544 53.0704 17.3479 53.0704 17.7581V22.8257H47.0303C46.5413 22.8257 46.0723 22.9887 45.7265 23.2787C45.3808 23.5688 45.1865 23.9623 45.1865 24.3726V31.2283C45.1865 31.6386 45.3808 32.032 45.7265 32.3221C46.0723 32.6122 46.5413 32.7752 47.0303 32.7752H53.0704V37.8448C53.0704 38.2551 53.2647 38.6485 53.6104 38.9386C53.9562 39.2287 54.4252 39.3917 54.9141 39.3917H63.0857C63.5746 39.3917 64.0436 39.2287 64.3894 38.9386C64.7351 38.6485 64.9294 38.2551 64.9294 37.8448V32.7752H70.9695C71.4585 32.7752 71.9275 32.6122 72.2733 32.3221C72.619 32.032 72.8133 31.6386 72.8133 31.2283V24.3726C72.8133 23.9623 72.619 23.5688 72.2733 23.2787C71.9275 22.9887 71.4585 22.8257 70.9695 22.8257ZM69.1258 29.6814H63.0857C62.5967 29.6814 62.1277 29.8444 61.7819 30.1345C61.4362 30.4246 61.2419 30.818 61.2419 31.2283V36.3H56.7579V31.2283C56.7579 30.818 56.5636 30.4246 56.2179 30.1345C55.8721 29.8444 55.4031 29.6814 54.9141 29.6814H48.874V25.9194H54.9141C55.4031 25.9194 55.8721 25.7565 56.2179 25.4664C56.5636 25.1763 56.7579 24.7828 56.7579 24.3726V19.305H61.2419V24.3726C61.2419 24.7828 61.4362 25.1763 61.7819 25.4664C62.1277 25.7565 62.5967 25.9194 63.0857 25.9194H69.1258V29.6814Z"
              fill="black"/>
        <path d="M5.45508 37.6076C4.96609 37.6076 4.49712 37.7706 4.15135 38.0607C3.80558 38.3508 3.61133 38.7442 3.61133 39.1545V97.4531C3.61133 97.8634 3.80558 98.2568 4.15135 98.5469C4.49712 98.837 4.96609 99 5.45508 99C5.94407 99 6.41304 98.837 6.75881 98.5469C7.10458 98.2568 7.29883 97.8634 7.29883 97.4531V39.1545C7.29883 38.7442 7.10458 38.3508 6.75881 38.0607C6.41304 37.7706 5.94407 37.6076 5.45508 37.6076Z"
              fill="black"/>
        <path d="M29.1215 40.3136H12.926C12.437 40.3136 11.9681 40.4766 11.6223 40.7667C11.2765 41.0568 11.0823 41.4502 11.0823 41.8605V47.6355C11.0823 48.0457 11.2765 48.4392 11.6223 48.7293C11.9681 49.0194 12.437 49.1823 12.926 49.1823H29.1215C29.6105 49.1823 30.0795 49.0194 30.4253 48.7293C30.771 48.4392 30.9653 48.0457 30.9653 47.6355V41.8687C30.9666 41.6649 30.9198 41.4629 30.8278 41.2742C30.7357 41.0856 30.6001 40.9141 30.4287 40.7696C30.2574 40.6251 30.0537 40.5104 29.8294 40.4321C29.605 40.3539 29.3645 40.3136 29.1215 40.3136ZM27.2778 46.0886H14.7698V43.4073H27.2876L27.2778 46.0886Z"
              fill="black"/>
        <path d="M29.1215 54.5531H12.926C12.437 54.5531 11.9681 54.7161 11.6223 55.0062C11.2765 55.2963 11.0823 55.6897 11.0823 56.1V61.875C11.0823 62.2853 11.2765 62.6787 11.6223 62.9688C11.9681 63.2589 12.437 63.4219 12.926 63.4219H29.1215C29.3645 63.423 29.6053 63.3838 29.8301 63.3065C30.0549 63.2293 30.2594 63.1155 30.4316 62.9717C30.6039 62.828 30.7406 62.6571 30.8338 62.4689C30.9271 62.2807 30.9751 62.0788 30.9751 61.875V56.1C30.9751 55.8962 30.9271 55.6943 30.8338 55.5061C30.7406 55.3179 30.6039 55.147 30.4316 55.0033C30.2594 54.8595 30.0549 54.7457 29.8301 54.6685C29.6053 54.5912 29.3645 54.552 29.1215 54.5531ZM27.2778 60.3281H14.7698V57.6469H27.2876L27.2778 60.3281Z"
              fill="black"/>
        <path d="M67.0978 62.2875H50.9023C50.4134 62.2875 49.9444 62.4504 49.5986 62.7405C49.2528 63.0306 49.0586 63.4241 49.0586 63.8344V97.4531C49.0586 97.8634 49.2528 98.2568 49.5986 98.5469C49.9444 98.837 50.4134 99 50.9023 99C51.3913 99 51.8603 98.837 52.2061 98.5469C52.5518 98.2568 52.7461 97.8634 52.7461 97.4531V65.3812H65.2541V97.4531C65.2541 97.8634 65.4483 98.2568 65.7941 98.5469C66.1399 98.837 66.6088 99 67.0978 99C67.5868 99 68.0558 98.837 68.4016 98.5469C68.7473 98.2568 68.9416 97.8634 68.9416 97.4531V63.8344C68.9416 63.4241 68.7473 63.0306 68.4016 62.7405C68.0558 62.4504 67.5868 62.2875 67.0978 62.2875V62.2875Z"
              fill="black"/>
        <path d="M29.1215 68.7926H12.926C12.437 68.7926 11.9681 68.9556 11.6223 69.2457C11.2765 69.5358 11.0823 69.9292 11.0823 70.3395V76.1145C11.0823 76.5247 11.2765 76.9182 11.6223 77.2083C11.9681 77.4984 12.437 77.6614 12.926 77.6614H29.1215C29.6105 77.6614 30.0795 77.4984 30.4253 77.2083C30.771 76.9182 30.9653 76.5247 30.9653 76.1145V70.3312C30.9627 69.9224 30.7673 69.5311 30.4218 69.2428C30.0763 68.9544 29.6088 68.7926 29.1215 68.7926V68.7926ZM27.2778 74.5676H14.7698V71.8864H27.2876L27.2778 74.5676Z"
              fill="black"/>
        <path d="M29.1215 83.03H12.926C12.437 83.03 11.9681 83.193 11.6223 83.4831C11.2765 83.7732 11.0823 84.1666 11.0823 84.5769V90.3519C11.0823 90.7622 11.2765 91.1556 11.6223 91.4457C11.9681 91.7358 12.437 91.8988 12.926 91.8988H29.1215C29.6105 91.8988 30.0795 91.7358 30.4253 91.4457C30.771 91.1556 30.9653 90.7622 30.9653 90.3519V84.5769C30.9653 84.1666 30.771 83.7732 30.4253 83.4831C30.0795 83.193 29.6105 83.03 29.1215 83.03V83.03ZM27.2778 88.805H14.7698V86.1238H27.2876L27.2778 88.805Z"
              fill="black"/>
        <path d="M112.545 37.6076C112.056 37.6076 111.587 37.7706 111.241 38.0607C110.895 38.3508 110.701 38.7442 110.701 39.1545V97.4531C110.701 97.8634 110.895 98.2568 111.241 98.5469C111.587 98.837 112.056 99 112.545 99C113.034 99 113.503 98.837 113.849 98.5469C114.194 98.2568 114.389 97.8634 114.389 97.4531V39.1545C114.389 38.7442 114.194 38.3508 113.849 38.0607C113.503 37.7706 113.034 37.6076 112.545 37.6076V37.6076Z"
              fill="black"/>
        <path d="M116.156 26.2536H82.0052V12.6225H87.8142C88.3032 12.6225 88.7722 12.4595 89.118 12.1694C89.4637 11.8793 89.658 11.4859 89.658 11.0756V1.54688C89.658 1.13662 89.4637 0.743165 89.118 0.453069C88.7722 0.162974 88.3032 0 87.8142 0L30.186 0C29.697 0 29.228 0.162974 28.8822 0.453069C28.5365 0.743165 28.3422 1.13662 28.3422 1.54688V11.0756C28.3422 11.4859 28.5365 11.8793 28.8822 12.1694C29.228 12.4595 29.697 12.6225 30.186 12.6225H35.995V26.2536H1.84385C1.35801 26.2541 0.892009 26.4152 0.546868 26.7021C0.201726 26.989 0.0052703 27.3784 9.53955e-05 27.786L-0.0761129 34.7779C-0.0780584 34.9821 -0.0318224 35.1847 0.0599329 35.374C0.151688 35.5632 0.287151 35.7353 0.45852 35.8804C0.62989 36.0255 0.833782 36.1408 1.05846 36.2195C1.28313 36.2982 1.52415 36.3389 1.76764 36.3392H35.995V97.4531C35.995 97.8634 36.1893 98.2568 36.535 98.5469C36.8808 98.837 37.3498 99 37.8388 99C38.3278 99 38.7967 98.837 39.1425 98.5469C39.4883 98.2568 39.6825 97.8634 39.6825 97.4531V12.6225H44.845C45.334 12.6225 45.803 12.4595 46.1487 12.1694C46.4945 11.8793 46.6888 11.4859 46.6888 11.0756C46.6888 10.6654 46.4945 10.2719 46.1487 9.98182C45.803 9.69172 45.334 9.52875 44.845 9.52875H32.0297V3.09375H85.9705V9.52875H51.5243C51.0353 9.52875 50.5663 9.69172 50.2206 9.98182C49.8748 10.2719 49.6805 10.6654 49.6805 11.0756C49.6805 11.4859 49.8748 11.8793 50.2206 12.1694C50.5663 12.4595 51.0353 12.6225 51.5243 12.6225H78.3201V97.4531C78.3201 97.8634 78.5144 98.2568 78.8602 98.5469C79.2059 98.837 79.6749 99 80.1639 99C80.6529 99 81.1218 98.837 81.4676 98.5469C81.8134 98.2568 82.0076 97.8634 82.0076 97.4531V36.3392H116.156C116.645 36.3392 117.114 36.1762 117.46 35.8861C117.806 35.596 118 35.2026 118 34.7923V27.8004C118 27.3902 117.806 26.9967 117.46 26.7066C117.114 26.4165 116.645 26.2536 116.156 26.2536ZM3.6286 33.2454L3.67039 29.3473H35.995V33.2454H3.6286ZM114.313 33.2454H82.0052V29.3473H114.313V33.2454Z"
              fill="black"/>
        <path d="M105.074 40.3136H88.8787C88.3897 40.3136 87.9207 40.4766 87.5749 40.7667C87.2292 41.0568 87.0349 41.4502 87.0349 41.8605V47.6355C87.0349 48.0457 87.2292 48.4392 87.5749 48.7293C87.9207 49.0194 88.3897 49.1823 88.8787 49.1823H105.074C105.563 49.1823 106.032 49.0194 106.378 48.7293C106.724 48.4392 106.918 48.0457 106.918 47.6355V41.8687C106.919 41.6649 106.872 41.4629 106.78 41.2742C106.688 41.0856 106.553 40.9141 106.381 40.7696C106.21 40.6251 106.006 40.5104 105.782 40.4321C105.558 40.3539 105.317 40.3136 105.074 40.3136ZM103.23 46.0886H90.7126V43.4073H103.221L103.23 46.0886Z"
              fill="black"/>
        <path d="M105.074 54.5531H88.8787C88.3897 54.5531 87.9207 54.7161 87.5749 55.0062C87.2292 55.2963 87.0349 55.6897 87.0349 56.1V61.875C87.0349 62.2852 87.2292 62.6787 87.5749 62.9688C87.9207 63.2589 88.3897 63.4219 88.8787 63.4219H105.074C105.563 63.4219 106.032 63.2589 106.378 62.9688C106.724 62.6787 106.918 62.2852 106.918 61.875V56.1C106.918 55.8968 106.87 55.6957 106.778 55.508C106.685 55.3203 106.549 55.1498 106.378 55.0062C106.207 54.8625 106.003 54.7486 105.78 54.6708C105.556 54.5931 105.316 54.5531 105.074 54.5531ZM103.23 60.3281H90.7126V57.6469H103.221L103.23 60.3281Z"
              fill="black"/>
        <path d="M105.074 68.7926H88.8787C88.3897 68.7926 87.9207 68.9556 87.5749 69.2457C87.2292 69.5358 87.0349 69.9292 87.0349 70.3395V76.1145C87.0349 76.5247 87.2292 76.9182 87.5749 77.2083C87.9207 77.4984 88.3897 77.6614 88.8787 77.6614H105.074C105.563 77.6614 106.032 77.4984 106.378 77.2083C106.724 76.9182 106.918 76.5247 106.918 76.1145V70.3312C106.915 69.9224 106.72 69.5311 106.374 69.2428C106.029 68.9544 105.561 68.7926 105.074 68.7926ZM103.23 74.5676H90.7126V71.8864H103.221L103.23 74.5676Z"
              fill="black"/>
        <path d="M105.074 83.03H88.8787C88.3897 83.03 87.9207 83.193 87.5749 83.4831C87.2292 83.7732 87.0349 84.1666 87.0349 84.5769V90.3519C87.0349 90.7622 87.2292 91.1556 87.5749 91.4457C87.9207 91.7358 88.3897 91.8988 88.8787 91.8988H105.074C105.563 91.8988 106.032 91.7358 106.378 91.4457C106.724 91.1556 106.918 90.7622 106.918 90.3519V84.5769C106.918 84.3738 106.87 84.1726 106.778 83.9849C106.685 83.7973 106.549 83.6267 106.378 83.4831C106.207 83.3395 106.003 83.2255 105.78 83.1478C105.556 83.07 105.316 83.03 105.074 83.03ZM103.23 88.805H90.7126V86.1238H103.221L103.23 88.805Z"
              fill="black"/>
        <path d="M67.0978 46.0928H50.9023C50.4134 46.0928 49.9444 46.2558 49.5986 46.5458C49.2528 46.8359 49.0586 47.2294 49.0586 47.6396C49.0586 48.0499 49.2528 48.4434 49.5986 48.7335C49.9444 49.0236 50.4134 49.1865 50.9023 49.1865H67.0978C67.5868 49.1865 68.0558 49.0236 68.4016 48.7335C68.7473 48.4434 68.9416 48.0499 68.9416 47.6396C68.9416 47.2294 68.7473 46.8359 68.4016 46.5458C68.0558 46.2558 67.5868 46.0928 67.0978 46.0928V46.0928Z"
              fill="black"/>
        <path d="M67.0978 54.188H50.9023C50.4134 54.188 49.9444 54.351 49.5986 54.6411C49.2528 54.9312 49.0586 55.3247 49.0586 55.7349C49.0586 56.1452 49.2528 56.5386 49.5986 56.8287C49.9444 57.1188 50.4134 57.2818 50.9023 57.2818H67.0978C67.5868 57.2818 68.0558 57.1188 68.4016 56.8287C68.7473 56.5386 68.9416 56.1452 68.9416 55.7349C68.9416 55.3247 68.7473 54.9312 68.4016 54.6411C68.0558 54.351 67.5868 54.188 67.0978 54.188V54.188Z"
              fill="black"/>
    </g>
    <defs>
        <clipPath id="clip0_226_382">
            <rect width="118" height="99" fill="white"/>
        </clipPath>
    </defs>
</svg>
