<svg width="118" height="105" viewBox="0 0 118 105" fill="none" xmlns="http://www.w3.org/2000/svg">
<path d="M75.5937 9.84375C73.3812 9.84375 71.5374 10.1719 69.3249 10.5C65.2687 6.89063 57.8937 6.89063 53.8374 10.5C50.8874 13.125 48.6749 20.6719 47.9374 24.6094C45.3562 25.9219 41.6687 25.9219 39.4562 23.625C37.9812 22.3125 35.7687 22.3125 34.2937 23.625C32.8187 24.9375 32.8187 26.9063 34.2937 28.2188C36.8749 31.1719 40.5624 32.1563 44.2499 32.1563C47.1999 32.1563 50.1499 31.1719 52.7312 29.5312C57.1562 28.875 66.3749 26.9063 69.6937 24.2813C71.9062 22.3125 73.0124 19.3594 73.0124 16.4062C73.7499 16.4062 74.4874 16.4062 75.5937 16.4062C88.8687 16.4062 99.5624 25.9219 99.5624 37.7344C99.5624 49.5469 88.8687 59.0625 75.5937 59.0625H63.7937L87.0249 45.2813C88.4999 44.625 88.8687 42.9844 88.4999 41.6719C88.1312 40.3594 86.6562 39.375 84.8124 39.375H18.4374C16.9624 39.375 15.4874 40.3594 14.7499 41.6719C14.3812 42.9844 14.7499 44.625 16.2249 45.2813L39.8249 59.0625C33.9249 60.375 29.4999 64.9687 29.4999 70.5469C29.4999 76.7812 35.3999 82.0312 42.4062 82.0312H47.9374V91.875H40.5624C38.3499 91.875 36.8749 93.1875 36.8749 95.1562C36.8749 97.125 38.3499 98.4375 40.5624 98.4375H57.1562C64.1624 98.4375 70.0624 93.1875 70.0624 86.9531C70.0624 80.7188 64.1624 75.4688 57.1562 75.4688H55.3124V65.625H75.5937C92.9249 65.625 106.937 53.1562 106.937 37.7344C106.937 22.3125 92.9249 9.84375 75.5937 9.84375ZM36.8749 70.5469C36.8749 67.9219 39.4562 65.625 42.4062 65.625H47.9374V75.4688H42.4062C39.4562 75.4688 36.8749 73.1719 36.8749 70.5469ZM62.6874 86.9531C62.6874 89.5781 60.1062 91.875 57.1562 91.875H55.3124V82.0312H57.1562C60.1062 82.0312 62.6874 84.3281 62.6874 86.9531Z" fill="black"/>
</svg>
