<svg width="140" height="135" viewBox="0 0 140 135" fill="none" xmlns="http://www.w3.org/2000/svg">
    <path fill-rule="evenodd" clip-rule="evenodd"
          d="M75.8722 0.263214C74.2445 0.438101 74.0451 0.508056 74.776 0.717921C75.6064 0.997742 75.6729 1.13765 75.7725 3.48114C75.839 4.84527 75.8057 6.0345 75.7393 6.10446C75.6729 6.17441 74.2777 6.24437 72.65 6.24437H69.7267V3.79594C69.7267 1.55738 69.7932 1.27756 70.4908 0.997742C71.0223 0.787877 70.6568 0.682944 68.9959 0.682944C67.7004 0.647967 66.7371 0.787877 66.7371 0.997742C66.7371 1.17263 67.036 1.34752 67.4014 1.34752C68.1987 1.34752 68.2983 2.01209 68.5641 8.20311C68.7446 11.7603 68.785 12.5559 68.421 12.8484C68.3161 12.9327 68.1777 12.9752 67.9994 13.03C66.7038 13.4497 67.8 13.5896 69.8928 13.2748C70.989 13.1 71.5537 12.9601 71.1883 12.9251C70.2582 12.8901 70.0589 12.2955 70.0589 9.39234V6.9789L72.9157 6.87396C74.477 6.80401 75.839 6.83899 75.9054 6.90894C75.9718 6.9789 76.0383 8.27306 76.0383 9.7771C76.0383 12.2605 75.9718 12.4704 75.3075 12.6453C73.9787 13.03 74.8424 13.1699 77.0348 12.9251C78.5961 12.7502 78.9947 12.6103 78.4632 12.4354C77.8321 12.1905 77.7324 11.8408 77.5663 9.11252C77.4737 7.94184 77.3649 6.363 77.2737 5.04008L77.2734 5.0359L77.2731 5.03234L77.2731 5.03104L77.2718 5.01333L77.2707 4.99649C77.2323 4.43914 77.1971 3.92892 77.1677 3.51612C77.0016 1.13765 77.068 0.927787 77.6992 0.752899C78.2971 0.578011 78.6958 -0.121539 78.131 0.0183713C77.9649 0.0533488 76.9684 0.158281 75.8722 0.263214ZM85.4724 1.41747C86.1035 1.94213 86.1035 2.04706 85.0073 7.32867C84.4094 10.3018 83.7782 12.8201 83.5789 12.96C83.3796 13.065 83.0474 13.1 82.7817 12.995C82.5491 12.8901 82.3498 12.96 82.3498 13.1C82.3498 13.2748 84.044 13.7995 86.1035 14.2542C88.1299 14.7089 89.9901 15.1636 90.1894 15.2336C90.3887 15.3035 90.887 14.8139 91.2857 14.1143C92.1161 12.6103 92.1826 11.7358 91.3853 12.7502C90.2891 14.1143 89.4586 14.3591 87.4987 13.9394C86.5022 13.7296 85.6052 13.4148 85.5056 13.2399C85.3063 12.8901 86.2032 8.69279 86.5686 8.34301C86.7015 8.2031 87.4987 8.27306 88.3292 8.48292C89.4586 8.79772 89.8572 9.04257 89.9901 9.74212C90.2226 10.8264 90.5216 10.3717 90.8206 8.34301C90.9537 7.44195 91.0106 7.05672 90.9103 7.01014C90.8354 6.97536 90.6728 7.12945 90.3887 7.39862C89.8572 7.92328 89.4254 7.99324 88.1963 7.81835C86.5022 7.53853 86.5022 7.50355 87.0337 4.77531C87.5652 2.22195 87.698 2.08204 89.5915 2.46679C91.3521 2.85154 92.2158 3.51612 92.4151 4.6354C92.4815 5.02015 92.5812 4.70535 92.6144 3.93585L92.6476 2.50177L89.7576 1.90715C88.921 1.74535 88.058 1.57431 87.3402 1.43203C86.6614 1.29748 86.1122 1.18865 85.8378 1.13765C84.9077 0.927781 84.8744 0.962759 85.4724 1.41747ZM94.4082 15.7583C95.0061 15.6883 96.7003 14.2892 99.6235 11.456C102.015 9.18248 104.108 7.29369 104.274 7.29369C104.473 7.29369 104.54 8.02822 104.44 9.11253C103.41 18.9762 103.377 20.0605 103.809 20.6201C104.64 21.6345 104.307 21.6345 102.447 20.6901C100.653 19.7457 100.022 19.0811 101.251 19.4309C101.949 19.6058 102.281 18.7663 102.281 16.4928C102.281 15.0587 102.215 14.9538 100.62 14.1143L98.9592 13.2399L97.9626 14.0094C97.3979 14.4291 96.7003 15.1636 96.4345 15.6533C95.9363 16.4228 95.9363 16.5278 96.4345 16.9125C97.564 17.7869 96.8996 17.752 95.2387 16.8426C93.5777 15.9331 93.5445 15.8632 94.4082 15.7583ZM102.447 14.2192C102.514 14.1493 102.646 13.065 102.779 11.7358C102.912 10.4067 102.879 9.39235 102.713 9.39235C102.547 9.39235 101.716 10.1619 100.853 11.0713L99.2914 12.7502L100.819 13.5197C101.683 13.9744 102.414 14.2892 102.447 14.2192ZM114.173 14.1843C114.539 14.8838 114.24 15.3385 111.184 19.1861C108.294 22.7538 107.662 23.3834 107.031 23.2085C106.599 23.1035 106.267 23.0686 106.267 23.1385C106.267 23.2085 107.696 24.5726 109.39 26.1466L112.546 29.0147L113.708 28.2103C115.27 27.1609 115.203 26.8811 113.575 27.3358C112.38 27.6856 112.147 27.6506 110.851 26.6363L110.704 26.5226C109.87 25.8808 109.357 25.4862 109.241 24.9975C109.056 24.2177 109.88 23.1981 112.019 20.5517L112.247 20.2704C115.27 16.4928 115.768 16.0031 116.465 16.213C117.196 16.3879 117.163 16.3179 116.166 15.4435C115.622 14.9344 114.914 14.3384 114.54 14.0243L114.54 14.0241L114.439 13.9394C113.841 13.4498 113.808 13.4498 114.173 14.1843ZM20.098 34.7161C27.7051 24.8174 37.9364 18.1018 49.6294 15.3385C52.8184 14.569 54.2136 14.4991 54.0475 15.0587C53.9811 15.2686 52.4862 15.7583 50.7589 16.108C46.2411 17.0874 43.2182 18.2067 38.3351 20.76C32.7876 23.6632 28.6352 26.8112 24.2504 31.4282C18.2378 37.7241 14.1851 44.7546 11.4279 53.569C9.76701 58.9205 9.0362 63.1178 8.73723 69.029C8.47148 74.2057 8.77045 75.7797 10.7636 79.6972L12.2916 82.6702L12.192 76.829C12.0923 71.6523 11.9927 70.9178 11.4612 70.4981C10.7303 69.9384 10.83 68.2245 11.6273 67.6999C12.3913 67.2102 13.8529 67.6649 14.0854 68.5043C14.2183 68.9591 14.019 69.6586 13.5872 70.4281C13.0224 71.3725 12.9228 72.0371 12.9892 73.8209L13.0889 76.0245L13.6868 74.6254C15.9789 69.2039 16.7429 68.0846 17.4073 69.2039C17.9056 70.0434 16.5436 75.325 14.5505 80.2918C13.255 83.5447 12.9892 85.4684 13.4543 88.0918C13.6536 89.1411 13.72 89.0362 14.2847 86.6577C15.0156 83.6496 17.2412 78.8227 17.9388 78.8227C19.2676 78.8227 18.2046 85.3985 15.9125 91.1348C15.1817 92.9886 14.5837 94.9823 14.5837 95.542C14.5837 97.7805 18.9686 104.531 23.8517 109.848C27.3397 113.695 28.2698 114.395 27.4393 112.681C27.1736 112.121 26.7085 110.827 26.3763 109.778C25.8781 108.204 25.2801 107.329 23.1874 105.161C20.2641 102.118 18.57 98.9348 18.3042 96.1366C18.0717 93.5133 18.7693 93.8631 21.5596 97.8855C22.8884 99.8092 24.0178 101.383 24.0843 101.383C24.2171 101.383 24.0843 100.579 23.5195 98.2352C23.3534 97.4657 22.9548 96.8711 22.4898 96.6613C21.9583 96.4164 21.6925 95.9617 21.6261 95.2272C21.4932 93.933 22.1576 93.2335 23.4199 93.4083C24.6822 93.5483 25.1473 94.4577 24.649 95.8218C24.3168 96.6962 24.3832 97.4657 24.9479 100.089L25.6788 103.307L26.0774 101.033C26.6089 98.0604 27.9376 94.3527 28.6684 93.898C29.5653 93.3034 29.8643 94.2478 29.8643 97.7106C29.8643 101.348 29.2664 104.321 28.0041 107.12L27.1072 109.113L28.0041 111.527C29.5321 115.619 31.6249 117.508 38.7005 121.25C42.1552 123.069 47.1712 124.923 51.5229 125.937C54.4794 126.637 55.8413 126.742 61.5882 126.742C65.2422 126.742 68.7302 126.637 69.3281 126.497C70.1254 126.287 70.3911 126.357 70.3911 126.707C70.3911 127.406 69.3613 127.616 64.0796 127.826C52.5527 128.351 41.5241 125.133 32.1896 118.522C29.6318 116.703 28.5688 116.179 26.4096 115.654C22.6226 114.71 19.7658 113.45 16.6765 111.282C13.8529 109.323 12.9228 108.344 12.9228 107.259C12.9228 106.245 14.3844 106.525 19.334 108.519C20.5631 109.008 21.5596 109.323 21.5596 109.253C21.5596 108.973 16.3111 104.881 15.5138 104.566C15.082 104.391 13.6204 103.972 12.2584 103.657C7.67423 102.572 1.56199 98.8998 2.55855 97.8505C3.05683 97.2908 5.94686 97.8505 9.16907 99.1097C10.3317 99.5644 11.2618 99.8092 11.2618 99.6343C11.2618 99.1447 8.43826 96.7662 6.41192 95.577C4.81742 94.6326 4.4188 94.5276 3.62155 94.8424C2.49212 95.2971 1.62843 94.7375 1.62843 93.5483C1.62843 91.8344 3.05683 91.4496 4.31914 92.8487C4.75099 93.3384 5.8472 94.1429 6.71089 94.5976L8.30539 95.472L7.54136 94.0379C7.10951 93.2335 5.91364 91.5545 4.85064 90.2604C3.78764 89.0012 2.49212 86.9725 1.96062 85.8182C0.897619 83.5097 -0.298253 78.8227 0.0671524 78.438C0.63187 77.8433 2.02705 78.7877 3.28936 80.6415C5.21605 83.4747 6.21261 85.7832 6.81054 88.7913C7.47492 92.1841 8.77045 94.6675 11.9262 98.655C14.1851 101.523 19.5333 106.945 18.7361 105.581C18.57 105.301 17.5402 103.622 16.4772 101.908C13.9526 97.8505 11.8266 93.1985 10.5643 88.8962C8.80367 82.8801 8.37182 81.6909 7.10951 78.7178C5.68111 75.29 5.24927 73.0514 6.04652 73.0514C6.34548 73.0514 6.77733 73.2963 7.07629 73.5761C7.34204 73.8559 7.60779 74.1008 7.67423 74.1008C7.74067 74.1008 7.80711 72.0021 7.87354 69.4837C8.17251 56.4721 12.192 44.9645 20.098 34.7161ZM13.7532 79.2774C13.9526 79.4873 14.8827 76.9689 15.5803 74.3106C15.9457 72.9815 16.1782 71.8272 16.1118 71.7573C16.0453 71.6873 15.6135 72.6317 15.1152 73.8209C14.2515 75.9895 13.5207 79.0326 13.7532 79.2774ZM10.4978 83.125C11.9927 85.2236 11.6937 83.9994 9.73379 80.0819C7.60779 75.7447 6.47836 74.2407 7.60779 77.2138C8.53792 79.7671 9.53448 81.7608 10.4978 83.125ZM5.81398 88.6164C5.71433 87.8469 5.11639 86.098 4.48524 84.7689C3.85408 83.4048 2.79108 81.6909 2.15993 80.9214L0.997275 79.5223L1.49556 81.446C2.22637 84.1043 3.75443 87.3223 4.98352 88.7913L6.0133 90.0155L5.81398 88.6164ZM15.3145 90.1904C15.6799 89.316 16.3443 87.1124 16.7761 85.2936C17.2412 83.4747 17.5402 81.7608 17.507 81.481C17.208 80.012 14.5505 88.4415 14.6169 90.6801C14.6169 91.7294 14.6502 91.7294 15.3145 90.1904ZM12.5574 91.6595C12.657 91.7994 12.7235 90.82 12.657 89.5258C12.5574 87.3223 12.4577 87.0424 11.3947 85.9581L10.2653 84.8039L11.2951 88.1267C11.893 89.9456 12.4245 91.5196 12.5574 91.6595ZM27.3397 106.14C28.0373 105.196 28.8678 101.138 28.901 98.2352C28.9342 96.8711 28.8678 95.6819 28.8013 95.6119C28.7349 95.507 28.303 96.4164 27.9044 97.6406C26.9411 100.369 26.476 107.259 27.3397 106.14ZM23.3867 103.832C25.3466 105.755 25.1473 105.021 22.6891 101.208C21.6925 99.6343 20.4966 97.9904 20.0648 97.5357L19.2011 96.6962L19.6994 98.1303C20.3638 100.159 21.5929 102.013 23.3867 103.832ZM13.3214 102.712C13.9526 102.468 11.2618 101.033 8.23895 99.9491C5.21605 98.8998 4.05339 98.655 4.9503 99.3195C7.10951 100.859 12.4245 103.027 13.3214 102.712ZM26.7418 114.57C27.0739 114.22 23.4863 111.807 20.1645 110.163C18.3042 109.218 16.145 108.274 15.4142 108.064L14.0854 107.714L15.7464 109.288C16.6765 110.163 18.4703 111.387 19.7326 112.051C22.2572 113.311 26.476 114.85 26.7418 114.57ZM123.641 24.6775C122.179 25.447 122.245 25.7968 123.84 25.5869C125.003 25.412 125.202 25.517 125.999 26.6013C126.464 27.2659 126.863 27.9304 126.863 28.0354C126.863 28.2802 119.156 34.1564 118.425 34.4362C118.126 34.5412 117.628 34.4362 117.329 34.1914C116.631 33.5618 116.831 34.0165 118.06 36.0802C119.023 37.6542 119.92 38.3887 119.256 37.0596C118.99 36.5699 119.09 36.2551 119.654 35.7304C120.784 34.6811 127.494 29.6793 127.793 29.6793C128.225 29.6793 129.52 31.708 129.52 32.3726C129.52 32.7223 129.288 33.3869 128.989 33.8066C128.158 35.0658 128.623 35.0309 129.819 33.7367L130.916 32.5475L129.454 30.6587C128.657 29.6093 127.328 27.7206 126.531 26.4264C125.733 25.1322 124.969 24.0829 124.87 24.1179C124.77 24.1179 124.205 24.3977 123.641 24.6775ZM128.756 42.2013C133.108 40.5223 133.673 40.2425 133.639 39.543C133.606 38.2138 133.972 38.7035 134.702 40.8721C135.4 43.0057 135.4 43.4255 134.669 42.3761C134.304 41.8515 134.105 41.8515 132.145 42.621C130.982 43.0757 129.952 43.4954 129.886 43.5304C129.653 43.7403 131.646 49.2667 131.945 49.2667C132.145 49.2667 133.141 48.9169 134.204 48.5322C135.898 47.8676 136.164 47.6577 136.164 46.8882C136.164 45.664 136.629 46.2587 137.294 48.3573C137.958 50.5259 137.958 50.5609 137.227 49.8613C136.662 49.3017 136.297 49.3717 131.846 51.1205C127.727 52.6945 127.029 53.0793 126.83 53.8138C126.63 54.6533 126.597 54.6533 126.365 53.9887C126.305 53.8163 126.206 53.5527 126.093 53.2545L126.092 53.2524L126.092 53.2511L126.091 53.2492L126.091 53.249C125.952 52.8828 125.795 52.4649 125.667 52.0999C125.069 50.5609 125.069 50.0012 125.667 50.8757C126.165 51.5752 126.398 51.5403 130.417 49.9313L131.148 49.6515L130.284 46.9932C129.819 45.5241 129.255 44.23 129.055 44.16C128.823 44.0551 127.693 44.3699 126.531 44.7896C124.837 45.4192 124.371 45.769 124.205 46.4685C124.006 47.273 123.94 47.203 123.475 45.769C123.405 45.5665 123.334 45.3566 123.264 45.1487L123.264 45.1481C123.031 44.4582 122.805 43.791 122.677 43.4954C122.569 43.1697 122.511 42.9957 122.551 42.9697C122.596 42.9399 122.77 43.1053 123.142 43.4604C123.833 44.0834 123.905 44.0557 128.604 42.2595L128.756 42.2013ZM43.6168 42.2362C43.7165 42.3761 44.3809 42.621 45.0785 42.7609C46.8723 43.0407 47.9685 44.09 48.5996 46.0138C49.0647 47.4479 49.1311 50.351 49.1311 68.8191C49.1311 83.02 48.9983 90.4702 48.7657 91.3796C48.2675 93.2335 46.8723 94.6326 44.9788 95.1222C44.1483 95.3321 43.5836 95.6469 43.7497 95.7518C43.949 95.8568 48.1014 95.8917 53.0177 95.8568L61.9203 95.7169L60.0933 95.0873C58.0337 94.3527 56.9708 93.2335 56.4725 91.3097C56.0074 89.6657 56.0074 73.5761 56.4393 72.7366C56.6718 72.2469 57.3362 72.0371 59.4954 71.8622C65.2422 71.3725 71.8859 69.7985 77.8653 67.56C82.5159 65.8461 82.9478 65.7761 83.1803 66.8604C83.3132 67.3501 83.3464 73.0164 83.2799 79.4173C83.1803 90.2254 83.1471 91.1698 82.5159 92.4639C81.8515 93.898 80.4896 94.8424 78.5629 95.2621C76.1712 95.7868 78.8619 95.9617 87.1665 95.7868C92.8469 95.6819 95.7037 95.507 94.9729 95.3321C92.7805 94.8074 91.9832 94.3178 91.2524 93.0236L90.4884 91.7644L90.3887 70.0783C90.3223 58.151 90.3887 47.6927 90.4884 46.8533C90.7874 44.7896 92.3486 43.0757 94.2753 42.7609C97.6968 42.2013 95.3383 41.9214 86.8676 41.9214C81.8183 41.9214 77.6992 42.0613 77.6992 42.2362C77.6992 42.3761 78.2971 42.621 79.028 42.7259C80.8218 42.9708 81.7851 43.6703 82.5491 45.3143C83.0806 46.4685 83.1803 47.7627 83.2799 54.8631C83.3464 60.1447 83.2799 63.4326 83.0474 64.0272C82.6488 65.1465 81.8515 65.5313 76.3705 67.455C71.5205 69.1339 67.8665 70.0783 63.1494 70.7429C58.2663 71.4774 56.5721 71.4774 56.3064 70.7429C56.2067 70.4281 56.1071 65.1115 56.1071 58.9205C56.1071 49.5116 56.2067 47.3779 56.6386 46.0138C57.2697 44.09 58.3659 43.0407 60.1597 42.7609C63.4816 42.2013 61.0566 41.9214 52.6191 41.9214C47.5034 41.9214 43.5172 42.0613 43.6168 42.2362ZM132.709 61.4039C133.374 60.0398 134.237 58.6057 134.603 58.2909C135.001 57.9411 135.799 57.6613 136.33 57.6613C138.29 57.6613 139.486 59.4102 139.486 62.1734C139.486 63.8174 139.419 63.9573 138.589 64.1671C138.058 64.2721 137.493 64.412 137.26 64.4819C136.43 64.7618 136.563 64.1671 137.493 63.5375C139.486 62.2784 139.586 59.725 137.659 59.2003C136.23 58.8156 135.267 59.5851 134.138 61.9286C132.709 64.9716 131.979 65.7061 130.55 65.7061C129.288 65.7061 128.158 64.9716 127.56 63.7124C127.162 62.873 127.062 58.8506 127.461 58.5707C127.992 58.221 130.185 57.9411 130.185 58.221C130.151 58.3958 129.686 58.8506 129.088 59.2353C127.627 60.2147 127.195 61.9286 128.092 63.1878C128.823 64.2371 129.487 64.4819 130.716 64.1671C131.281 63.9923 131.846 63.2577 132.709 61.4039ZM138.124 71.5824C139.154 72.4918 139.22 72.5967 138.988 74.2057C138.755 75.7797 138.689 75.8846 137.858 75.7097C137.445 75.6165 135.723 75.3579 133.877 75.0807L133.174 74.9752C128.025 74.2407 127.859 74.2057 127.527 73.2963C127.261 72.5967 127.228 72.5967 127.228 73.5761C127.2 74.0588 127.122 74.9579 127.058 75.6898L127.029 76.0245C126.863 77.1438 126.896 77.2837 127.162 76.6191C127.361 76.1994 127.627 75.8496 127.76 75.8496C127.836 75.8496 128.686 75.9644 129.947 76.1347L129.949 76.1349L129.953 76.1355C130.893 76.2624 132.061 76.4201 133.307 76.5842L138.556 77.3537L138.357 78.7877C138.124 80.3267 137.194 81.446 136.131 81.446C135.799 81.446 135.5 81.6209 135.5 81.8308C135.5 82.0406 135.732 82.1106 136.031 82.0057C136.33 81.9007 137.061 81.7958 137.725 81.7958C138.589 81.7958 138.855 81.6559 138.722 81.3061C138.523 80.7814 139.586 72.9115 139.951 71.9671C140.117 71.5474 139.885 71.3375 138.888 71.0227C136.995 70.4281 136.895 70.4981 138.124 71.5824ZM123.408 94.8074C121.648 91.2048 123.275 86.6927 126.763 85.7133C129.122 85.0487 131.547 85.7483 133.241 87.6371C134.37 88.8962 134.835 90.1904 134.835 92.1492C134.835 94.8074 133.241 97.011 130.683 97.8855C128.225 98.7599 124.604 97.2209 123.408 94.8074ZM134.403 92.8487C134.636 91.2048 133.573 89.4559 131.513 88.3016C128.623 86.6577 125.634 86.8675 124.072 88.8263C122.345 90.9949 123.275 93.8631 126.232 95.472C129.952 97.4657 133.872 96.2065 134.403 92.8487ZM117.462 99.6693C116.798 100.614 116.333 101.383 116.499 101.383C116.631 101.383 116.93 101.208 117.097 101.033C117.362 100.754 118.027 101.138 119.322 102.258C120.385 103.132 121.216 104.007 121.216 104.146C121.216 105.021 120.252 105.196 117.462 104.881C114.306 104.496 112.977 104.846 112.247 106.28C111.881 106.98 112.346 107.329 112.745 106.63C112.977 106.245 116.366 106.175 118.326 106.49C119.522 106.7 119.555 106.77 119.555 108.274C119.555 111.072 121.747 112.366 124.039 110.897C125.069 110.198 128.457 105.93 127.959 105.93C127.793 105.93 127.494 106.105 127.261 106.35C126.963 106.665 126.497 106.42 125.302 105.371C124.658 104.818 123.518 103.816 122.41 102.842C121.974 102.458 121.543 102.079 121.149 101.733C119.721 100.544 118.558 99.4594 118.558 99.3895C118.558 99.3195 118.724 98.9348 118.89 98.55C119.555 97.2908 118.724 97.9204 117.462 99.6693ZM123.906 106.175C124.969 107.12 125.866 107.994 125.866 108.134C125.866 108.274 125.501 108.798 125.036 109.253C123.906 110.477 122.445 110.407 121.149 109.078C120.319 108.169 120.186 107.819 120.352 106.91C120.551 105.93 121.382 104.531 121.814 104.531C121.88 104.531 122.843 105.266 123.906 106.175ZM109.058 109.883C107.961 110.093 108.094 109.743 109.523 108.659C110.984 107.539 111.383 107.434 110.851 108.344C110.519 108.903 110.752 110.128 111.981 115.164C112.811 118.557 113.376 121.39 113.21 121.495C113.077 121.6 110.785 120.201 108.128 118.382C105.47 116.563 102.912 115.024 102.447 114.954C101.617 114.85 101.65 114.78 103.244 113.52C104.772 112.331 105.536 112.156 104.54 113.241C104.075 113.695 104.772 114.43 106.799 115.584C107.829 116.179 107.862 116.179 109.39 115.024C110.22 114.395 110.918 113.66 110.918 113.45C110.918 113.241 110.685 112.296 110.386 111.387C109.921 109.918 109.722 109.743 109.058 109.883ZM111.749 116.669L111.748 116.668C111.483 115.584 111.117 114.675 110.984 114.675C110.586 114.675 108.393 116.668 108.593 116.843C108.792 117.053 111.615 119.012 112.147 119.362C112.413 119.502 112.512 119.432 112.446 119.152C112.346 118.907 112.047 117.788 111.749 116.669ZM92.9798 118.557C92.1493 118.942 91.0863 119.641 90.6213 120.131L89.7244 121.006L90.4552 122.789C91.1196 124.433 91.1196 124.573 90.5548 124.993C89.5251 125.763 89.9569 125.867 91.5182 125.168C92.3487 124.783 93.2456 124.468 93.5113 124.468C93.7771 124.468 93.9764 124.328 93.9764 124.119C93.9764 123.944 93.6442 123.804 93.2456 123.874C92.6808 123.944 92.3819 123.594 91.8504 122.23L91.1528 120.551L92.0497 119.746C96.0691 116.109 102.015 122.265 99.8228 127.791C98.8595 130.17 95.6705 131.184 93.8435 129.68C92.6808 128.701 92.5147 128.946 93.3784 130.345C94.1425 131.639 94.4414 131.674 96.9328 130.834C101.982 129.19 103.444 123.209 99.7232 119.502C97.8962 117.683 95.5044 117.333 92.9798 118.557ZM76.8355 121.775C76.8687 121.74 78.3636 121.565 80.1906 121.39C82.0176 121.215 83.9775 121.041 84.509 121.041C85.4724 121.006 85.4724 121.041 84.7748 121.39C84.5606 121.499 84.3994 121.57 84.2841 121.686C83.9165 122.056 84.0142 122.888 84.3429 126.882C84.8744 132.863 84.9409 133.213 85.6717 133.213C86.0371 133.213 86.3361 133.353 86.3361 133.528C86.3361 133.667 85.0405 133.912 83.446 134.017C81.8183 134.157 80.0577 134.332 79.493 134.472C78.5297 134.647 78.43 134.577 78.0646 133.528C77.8104 132.742 77.6859 132.358 77.7749 132.299C77.8604 132.244 78.1426 132.488 78.6958 132.968C79.493 133.702 79.9249 133.807 81.0875 133.667C81.8848 133.598 82.7152 133.458 82.9478 133.353C83.3796 133.213 83.4793 131.429 83.1139 129.225L82.9145 127.896L81.3865 128.106C80.3567 128.246 79.6591 128.596 79.2937 129.12C78.9725 129.534 78.8238 129.725 78.755 129.7C78.6958 129.678 78.6958 129.495 78.6958 129.155C78.6958 128.736 78.5961 127.896 78.4965 127.302C78.2639 126.077 78.8286 125.763 79.1276 126.952C79.2937 127.616 79.493 127.686 81.0211 127.546C81.9512 127.441 82.7484 127.302 82.8481 127.232C82.9145 127.127 82.8813 125.972 82.7484 124.643L82.5159 122.195L80.855 122.09C78.7954 121.985 77.6992 122.545 76.9352 124.119L76.3372 125.343L76.5698 123.594C76.6694 122.615 76.8023 121.81 76.8355 121.775Z"
          fill="white"/>
</svg>
