<svg width="207" height="197" viewBox="0 0 207 197" fill="none" xmlns="http://www.w3.org/2000/svg">
<path fill-rule="evenodd" clip-rule="evenodd" d="M112.182 0.384505C109.776 0.639983 109.481 0.742174 110.562 1.04875C111.789 1.45751 111.888 1.66189 112.035 5.08529C112.133 7.07801 112.084 8.81526 111.986 8.91745C111.888 9.01964 109.825 9.12183 107.418 9.12183H103.096V5.54515C103.096 2.27504 103.194 1.86627 104.226 1.45751C105.011 1.15094 104.471 0.997651 102.015 0.997651C100.1 0.946556 98.6755 1.15094 98.6755 1.45751C98.6755 1.71299 99.1175 1.96847 99.6578 1.96847C100.837 1.96847 100.984 2.93928 101.377 11.9832C101.643 17.1679 101.703 18.3366 101.169 18.7662C101.013 18.8913 100.808 18.9537 100.542 19.0344C98.6264 19.6475 100.247 19.8519 103.342 19.392C104.962 19.1366 105.797 18.9322 105.257 18.8811C103.882 18.83 103.587 17.9614 103.587 13.7204V10.1948L107.811 10.0416C110.12 9.93936 112.133 9.99046 112.232 10.0926C112.33 10.1948 112.428 12.0854 112.428 14.2825C112.428 17.9103 112.33 18.2168 111.347 18.4723C109.383 19.0344 110.66 19.2387 113.901 18.8811C116.21 18.6256 116.799 18.4212 116.013 18.1657C115.08 17.8081 114.933 17.2971 114.687 13.3117C114.55 11.6025 114.39 9.29792 114.255 7.36609L114.255 7.3641L114.254 7.35771L114.253 7.33445L114.253 7.33322C114.195 6.50567 114.142 5.74785 114.098 5.13639C113.852 1.66189 113.951 1.35532 114.884 1.09984C115.768 0.844365 116.357 -0.177545 115.522 0.026837C115.277 0.0779325 113.803 0.231219 112.182 0.384505ZM126.377 2.07065C127.31 2.83708 127.31 2.99037 125.689 10.7058C124.805 15.0489 123.872 18.7278 123.577 18.9322C123.283 19.0854 122.792 19.1365 122.399 18.9833C122.055 18.83 121.76 18.9322 121.76 19.1365C121.76 19.392 124.265 20.1585 127.31 20.8227C130.306 21.4869 133.057 22.1512 133.352 22.2534C133.646 22.3556 134.383 21.6402 134.972 20.6183C136.2 18.4212 136.298 17.1438 135.12 18.6256C133.499 20.6183 132.271 20.976 129.373 20.3628C127.9 20.0563 126.573 19.5964 126.426 19.3409C126.131 18.83 127.458 12.6985 127.998 12.1876C128.194 11.9832 129.373 12.0854 130.601 12.3919C132.271 12.8518 132.86 13.2095 133.057 14.2314C133.401 15.8153 133.843 15.1511 134.285 12.1876C134.481 10.873 134.565 10.31 134.418 10.2408C134.307 10.1889 134.067 10.4141 133.646 10.808C132.86 11.5744 132.222 11.6766 130.405 11.4211C127.9 11.0124 127.9 10.9613 128.685 6.97581C129.471 3.24584 129.668 3.04146 132.467 3.60351C135.071 4.16556 136.348 5.13638 136.642 6.77143C136.741 7.33348 136.888 6.87362 136.937 5.74952L136.986 3.65461L132.713 2.78598C131.478 2.55002 130.204 2.3006 129.144 2.09296L129.139 2.09201L129.139 2.09191C128.135 1.89536 127.323 1.73638 126.917 1.66188C125.542 1.35531 125.493 1.40641 126.377 2.07065ZM139.589 23.0198C140.473 22.9176 142.978 20.8738 147.301 16.7351C150.837 13.4139 153.931 10.6547 154.177 10.6547C154.471 10.6547 154.57 11.7277 154.422 13.3117C152.9 27.7206 152.851 29.3046 153.489 30.1221C154.717 31.6038 154.226 31.6038 151.475 30.2243C148.823 28.8447 147.89 27.8739 149.707 28.3848C150.739 28.6403 151.23 27.414 151.23 24.0928C151.23 21.9979 151.132 21.8446 148.774 20.6183L146.318 19.3409L144.845 20.465C144.01 21.0782 142.978 22.1512 142.585 22.8665C141.849 23.9906 141.849 24.1439 142.585 24.706C144.255 25.9833 143.273 25.9322 140.817 24.6038C138.361 23.2753 138.312 23.1731 139.589 23.0198ZM151.475 20.7716C151.574 20.6694 151.77 19.0855 151.967 17.1438C152.163 15.2022 152.114 13.7204 151.868 13.7204C151.623 13.7204 150.395 14.8445 149.118 16.173L146.809 18.6256L149.069 19.7497C150.346 20.4139 151.426 20.8738 151.475 20.7716ZM168.813 20.7205C169.354 21.7424 168.912 22.4067 164.393 28.0272C160.12 33.2389 159.187 34.1586 158.253 33.9032C157.615 33.7499 157.124 33.6988 157.124 33.801C157.124 33.9032 159.236 35.8959 161.741 38.1952L166.407 42.385L168.126 41.2098C170.434 39.6769 170.336 39.2682 167.929 39.9324C166.161 40.4434 165.817 40.3923 163.902 38.9105L163.684 38.7445C162.448 37.8048 161.689 37.2279 161.52 36.5117C161.25 35.3732 162.47 33.8825 165.628 30.0222L165.965 29.6111C170.434 24.0928 171.171 23.3775 172.202 23.6841C173.283 23.9395 173.234 23.8373 171.76 22.56C170.957 21.8172 169.911 20.9479 169.358 20.4886L169.357 20.4882L169.357 20.4878L169.356 20.4875L169.356 20.4873L169.356 20.4871L169.206 20.3629C168.322 19.6475 168.273 19.6475 168.813 20.7205ZM29.7164 50.7136C40.964 36.2535 56.0917 26.4432 73.3806 22.4067C78.0958 21.2826 80.1587 21.1804 79.9131 21.9979C79.8149 22.3045 77.6046 23.0198 75.0506 23.5308C68.3708 24.9614 63.9012 26.5965 56.6811 30.3265C48.4787 34.5674 42.3392 39.166 35.8559 45.9106C26.9658 55.1078 20.9737 65.378 16.897 78.2541C14.4412 86.0717 13.3607 92.2031 12.9186 100.838C12.5257 108.4 12.9677 110.7 15.9147 116.422L18.174 120.765L18.0267 112.233C17.8794 104.67 17.732 103.597 16.9461 102.984C15.8656 102.167 16.0129 99.6631 17.1917 98.8966C18.3214 98.1813 20.4825 98.8455 20.8263 100.072C21.0228 100.736 20.7281 101.758 20.0896 102.882C19.2546 104.262 19.1073 105.232 19.2055 107.838L19.3528 111.057L20.2369 109.014C23.6259 101.094 24.7556 99.4587 25.7379 101.094C26.4747 102.32 24.4609 110.035 21.5139 117.291C19.5984 122.043 19.2055 124.853 19.8931 128.685C20.1878 130.218 20.286 130.065 21.121 126.59C22.2016 122.196 25.4924 115.145 26.5238 115.145C28.4884 115.145 26.9167 124.751 23.5277 133.131C22.4472 135.839 21.5631 138.751 21.5631 139.569C21.5631 142.839 28.0464 152.7 35.2665 160.467C40.4237 166.087 41.7989 167.109 40.571 164.605C40.1781 163.788 39.4905 161.897 38.9993 160.365C38.2626 158.065 37.3785 156.788 34.2842 153.62C29.9619 149.175 27.457 144.525 27.0641 140.437C26.7203 136.605 27.7517 137.116 31.8775 142.992C33.8421 145.802 35.5121 148.102 35.6103 148.102C35.8068 148.102 35.6103 146.926 34.7753 143.503C34.5297 142.379 33.9403 141.51 33.2527 141.204C32.4669 140.846 32.0739 140.182 31.9757 139.109C31.7792 137.218 32.7616 136.196 34.628 136.452C36.4944 136.656 37.182 137.985 36.4453 139.977C35.9541 141.255 36.0523 142.379 36.8873 146.211L37.9679 150.912L38.5573 147.591C39.3431 143.248 41.3078 137.831 42.3883 137.167C43.7145 136.299 44.1565 137.678 44.1565 142.737C44.1565 148.05 43.2724 152.394 41.406 156.481L40.0799 159.394L41.406 162.919C43.6654 168.897 46.7597 171.657 57.2214 177.124C62.3295 179.781 69.746 182.489 76.1803 183.971C80.5516 184.993 82.5654 185.146 91.0625 185.146C96.4652 185.146 101.622 184.993 102.507 184.788C103.685 184.482 104.078 184.584 104.078 185.095C104.078 186.117 102.556 186.423 94.7462 186.73C77.7029 187.496 61.3963 182.795 47.5946 173.138C43.8127 170.481 42.241 169.715 39.0484 168.949C33.4492 167.569 29.2252 165.73 24.6574 162.562C20.4825 159.7 19.1073 158.27 19.1073 156.686C19.1073 155.204 21.2684 155.613 28.5867 158.525C30.404 159.24 31.8775 159.7 31.8775 159.598C31.8775 159.189 24.1171 153.211 22.9383 152.751C22.2998 152.496 20.1387 151.883 18.1249 151.423C11.3469 149.839 2.30952 144.474 3.783 142.941C4.51975 142.123 8.79286 142.941 13.5571 144.78C15.2762 145.445 16.6514 145.802 16.6514 145.547C16.6514 144.831 12.4766 141.357 9.48048 139.62C7.12291 138.24 6.53351 138.087 5.35472 138.547C3.68477 139.211 2.40775 138.393 2.40775 136.656C2.40775 134.153 4.51975 133.59 6.38616 135.634C7.02467 136.35 8.64551 137.525 9.92253 138.189L12.2801 139.466L11.1504 137.372C10.5119 136.196 8.74374 133.744 7.17202 131.853C5.6003 130.014 3.68477 127.05 2.89891 125.364C1.32719 121.992 -0.440988 115.145 0.0992896 114.583C0.934265 113.714 2.99714 115.094 4.86356 117.802C7.7123 121.941 9.18579 125.313 10.0699 129.707C11.0522 134.663 12.9677 138.291 17.6338 144.116C20.9737 148.306 28.8814 156.226 27.7026 154.233C27.457 153.824 25.9344 151.372 24.3627 148.868C20.6299 142.941 17.4864 136.145 15.62 129.86C13.0168 121.072 12.3783 119.335 10.5119 114.992C8.39993 109.984 7.76142 106.714 8.9402 106.714C9.38225 106.714 10.0208 107.072 10.4628 107.481C10.8557 107.889 11.2487 108.247 11.3469 108.247C11.4451 108.247 11.5434 105.181 11.6416 101.502C12.0836 82.495 18.0267 65.6846 29.7164 50.7136ZM20.3352 115.809C20.6299 116.116 22.0051 112.437 23.0366 108.554C23.5768 106.612 23.9206 104.926 23.8224 104.824C23.7242 104.722 23.0857 106.101 22.3489 107.838C21.0719 111.006 19.9913 115.452 20.3352 115.809ZM15.5218 121.43C17.732 124.495 17.29 122.707 14.3921 116.984C11.2487 110.649 9.57871 108.451 11.2487 112.795C12.6239 116.525 14.0974 119.437 15.5218 121.43ZM8.59639 129.452C8.44904 128.328 7.56495 125.773 6.63174 123.831C5.69854 121.839 4.12682 119.335 3.19361 118.211L1.47454 116.167L2.21129 118.977C3.29184 122.86 5.55119 127.561 7.36849 129.707L8.89109 131.496L8.59639 129.452ZM22.6436 131.751C23.1839 130.474 24.1662 127.255 24.8047 124.598C25.4924 121.941 25.9344 119.437 25.8853 119.028C25.4432 116.882 21.5139 129.196 21.6122 132.466C21.6122 133.999 21.6613 133.999 22.6436 131.751ZM18.567 133.897C18.7143 134.101 18.8126 132.671 18.7143 130.78C18.567 127.561 18.4196 127.152 16.8479 125.568L15.178 123.882L16.7006 128.736C17.5847 131.393 18.3705 133.693 18.567 133.897ZM40.4237 155.051C41.4551 153.671 42.683 147.744 42.7321 143.503C42.7813 141.51 42.683 139.773 42.5848 139.671C42.4866 139.518 41.8481 140.846 41.2587 142.634C39.8343 146.62 39.1467 156.686 40.4237 155.051ZM34.5789 151.678C37.4767 154.489 37.182 153.416 33.5474 147.846C32.0739 145.547 30.3057 143.145 29.6672 142.481L28.3902 141.255L29.127 143.35C30.1093 146.313 31.9266 149.021 34.5789 151.678ZM19.6966 150.043C20.6299 149.686 16.6514 147.591 12.1819 146.007C7.7123 144.474 5.99323 144.116 7.31937 145.087C10.5119 147.335 18.3705 150.503 19.6966 150.043ZM39.5396 167.365C40.0308 166.854 34.7262 163.328 29.8146 160.927C27.0641 159.547 23.8715 158.167 22.791 157.861L20.8263 157.35L23.2821 159.649C24.6574 160.927 27.3097 162.715 29.1761 163.686C32.9089 165.525 39.1467 167.773 39.5396 167.365ZM182.812 36.0492C180.65 37.1733 180.749 37.6842 183.106 37.3776C184.825 37.1222 185.12 37.2754 186.299 38.8594C186.986 39.8302 187.576 40.801 187.576 40.9543C187.576 41.312 176.181 49.896 175.1 50.3048C174.658 50.4581 173.921 50.3048 173.479 49.9471C172.448 49.0274 172.743 49.6916 174.56 52.7063C175.984 55.0056 177.311 56.0786 176.328 54.137C175.935 53.4216 176.083 52.9618 176.918 52.1953C178.588 50.6625 188.509 43.3558 188.951 43.3558C189.59 43.3558 191.505 46.3193 191.505 47.2902C191.505 47.8011 191.161 48.7719 190.719 49.3851C189.491 51.2245 190.179 51.1734 191.947 49.2829L193.568 47.5456L191.407 44.7865C190.228 43.2536 188.263 40.4945 187.085 38.6039C185.906 36.7134 184.776 35.1805 184.629 35.2316C184.481 35.2316 183.646 35.6404 182.812 36.0492ZM190.375 61.648C196.81 59.1954 197.645 58.7867 197.596 57.7647C197.546 55.8231 198.087 56.5385 199.167 59.7064C200.199 62.8232 200.199 63.4363 199.118 61.9035C198.578 61.137 198.283 61.137 195.385 62.2611C193.666 62.9254 192.144 63.5385 192.045 63.5896C191.702 63.8962 194.649 71.9693 195.091 71.9693C195.385 71.9693 196.859 71.4583 198.43 70.8963C200.935 69.9255 201.328 69.6189 201.328 68.4948C201.328 66.7065 202.016 67.5751 202.998 70.6408C203.981 73.8087 203.981 73.8598 202.9 72.8379C202.065 72.0204 201.525 72.1226 194.943 74.6774C188.853 76.9766 187.821 77.5387 187.527 78.6117C187.232 79.838 187.183 79.838 186.839 78.8672C186.751 78.6142 186.603 78.2267 186.435 77.7886L186.434 77.7863L186.434 77.7862C186.23 77.2513 185.996 76.6411 185.808 76.108C184.924 73.8598 184.924 73.0423 185.808 74.3197C186.544 75.3416 186.888 75.2905 192.831 72.9401L193.912 72.5313L192.635 68.6481C191.947 66.5021 191.112 64.6115 190.817 64.5094C190.474 64.3561 188.804 64.8159 187.085 65.4291C184.58 66.3488 183.892 66.8597 183.646 67.8817C183.352 69.0569 183.254 68.9547 182.566 66.8597C182.464 66.5645 182.359 66.2582 182.255 65.955L182.255 65.9539C181.91 64.9457 181.576 63.9705 181.387 63.5385C181.227 63.0634 181.142 62.8092 181.2 62.7707C181.266 62.7265 181.523 62.968 182.075 63.4874C183.095 64.3974 183.202 64.357 190.15 61.7331L190.375 61.648ZM64.4906 61.6991C64.638 61.9035 65.6203 62.2611 66.6517 62.4655C69.304 62.8743 70.9248 64.4072 71.858 67.2174C72.5457 69.3123 72.6439 73.5533 72.6439 100.532C72.6439 121.276 72.4474 132.16 72.1036 133.488C71.3669 136.196 69.304 138.24 66.5044 138.955C65.2765 139.262 64.4415 139.722 64.6871 139.875C64.9818 140.028 71.1213 140.08 78.3905 140.028L91.5536 139.824L88.8522 138.904C85.807 137.831 84.2353 136.196 83.4986 133.386C82.811 130.985 82.811 107.481 83.4495 106.254C83.7933 105.539 84.7756 105.232 87.9682 104.977C96.4653 104.262 106.288 101.962 115.129 98.6922C122.006 96.1886 122.644 96.0864 122.988 97.6703C123.184 98.3857 123.234 106.663 123.135 116.014C122.988 131.802 122.939 133.182 122.006 135.072C121.023 137.167 119.01 138.547 116.161 139.16C112.624 139.926 116.603 140.182 128.882 139.926C137.281 139.773 141.505 139.518 140.424 139.262C137.183 138.496 136.004 137.78 134.923 135.89L133.794 134.05L133.646 102.371C133.548 84.9475 133.646 69.67 133.794 68.4437C134.236 65.4291 136.544 62.9254 139.393 62.4655C144.452 61.648 140.965 61.2392 128.44 61.2392C120.974 61.2392 114.884 61.4436 114.884 61.6991C114.884 61.9035 115.768 62.2611 116.848 62.4144C119.501 62.7721 120.925 63.794 122.055 66.1955C122.841 67.8817 122.988 69.7722 123.135 80.1446C123.234 87.86 123.135 92.663 122.792 93.5316C122.202 95.1666 121.023 95.7287 112.919 98.5389C105.748 100.992 100.345 102.371 93.3709 103.342C86.1509 104.415 83.6459 104.415 83.253 103.342C83.1057 102.882 82.9583 95.1156 82.9583 86.0716C82.9583 72.327 83.1057 69.2101 83.7442 67.2174C84.6774 64.4072 86.2982 62.8743 88.9505 62.4655C93.8621 61.648 90.2766 61.2392 77.8011 61.2392C70.2372 61.2392 64.3433 61.4436 64.4906 61.6991ZM196.22 89.6994C197.203 87.7067 198.48 85.6118 199.02 85.1519C199.609 84.641 200.788 84.2322 201.574 84.2322C204.472 84.2322 206.24 86.787 206.24 90.8235C206.24 93.225 206.142 93.4294 204.914 93.736C204.128 93.8893 203.293 94.0936 202.949 94.1958C201.721 94.6046 201.918 93.736 203.293 92.8163C206.24 90.9768 206.387 87.2468 203.539 86.4804C201.427 85.9184 200.002 87.0425 198.332 90.4659C196.22 94.9112 195.14 95.9842 193.028 95.9842C191.161 95.9842 189.491 94.9112 188.607 93.0717C188.018 91.8454 187.87 85.9695 188.46 85.5607C189.246 85.0497 192.487 84.641 192.487 85.0497C192.438 85.3052 191.751 85.9695 190.867 86.5315C188.705 87.9622 188.067 90.4659 189.393 92.3053C190.474 93.8382 191.456 94.1958 193.273 93.736C194.108 93.4805 194.943 92.4075 196.22 89.6994ZM204.226 104.568C205.749 105.897 205.847 106.05 205.503 108.4C205.159 110.7 205.061 110.853 203.833 110.597C203.223 110.461 200.677 110.084 197.949 109.679L197.947 109.679L197.947 109.679L196.908 109.524C189.295 108.451 189.049 108.4 188.558 107.072C188.165 106.05 188.116 106.05 188.116 107.481C188.074 108.185 187.958 109.498 187.864 110.566L187.821 111.057C187.576 112.692 187.625 112.897 188.018 111.926C188.313 111.313 188.705 110.802 188.902 110.802C189.015 110.802 190.272 110.97 192.139 111.219C193.529 111.404 195.259 111.635 197.104 111.875L204.865 112.999L204.57 115.094C204.226 117.342 202.851 118.977 201.279 118.977C200.788 118.977 200.346 119.233 200.346 119.539C200.346 119.846 200.69 119.948 201.132 119.795C201.574 119.641 202.654 119.488 203.637 119.488C204.914 119.488 205.307 119.284 205.11 118.773C204.816 118.006 206.387 106.51 206.928 105.13C207.173 104.517 206.829 104.211 205.356 103.751C202.556 102.882 202.409 102.984 204.226 104.568ZM182.468 138.496C179.865 133.233 182.271 126.641 187.428 125.211C190.916 124.24 194.501 125.262 197.006 128.021C198.676 129.86 199.364 131.751 199.364 134.612C199.364 138.496 197.006 141.715 193.224 142.992C189.59 144.269 184.236 142.021 182.468 138.496ZM198.725 135.634C199.069 133.233 197.497 130.678 194.452 128.992C190.179 126.59 185.759 126.897 183.45 129.758C180.896 132.926 182.271 137.116 186.643 139.466C192.144 142.379 197.939 140.539 198.725 135.634ZM173.676 145.598C172.694 146.977 172.006 148.102 172.251 148.102C172.448 148.102 172.89 147.846 173.136 147.591C173.529 147.182 174.511 147.744 176.426 149.379C177.998 150.656 179.226 151.934 179.226 152.138C179.226 153.416 177.802 153.671 173.676 153.211C169.01 152.649 167.045 153.16 165.965 155.255C165.424 156.277 166.112 156.788 166.701 155.766C167.045 155.204 172.055 155.102 174.953 155.562C176.721 155.868 176.77 155.97 176.77 158.167C176.77 162.255 180.012 164.146 183.401 162C184.923 160.978 189.933 154.744 189.197 154.744C188.951 154.744 188.509 154.999 188.165 155.357C187.723 155.817 187.035 155.459 185.267 153.926C184.318 153.122 182.64 151.664 181.006 150.244L180.994 150.233L180.991 150.231L180.982 150.222C180.341 149.665 179.707 149.115 179.128 148.613C177.016 146.875 175.297 145.291 175.297 145.189C175.297 145.087 175.542 144.525 175.788 143.963L175.788 143.963C176.77 142.123 175.542 143.043 173.676 145.598ZM183.204 155.102C184.776 156.481 186.102 157.759 186.102 157.963C186.102 158.167 185.562 158.934 184.874 159.598C183.204 161.386 181.043 161.284 179.128 159.343C177.9 158.014 177.703 157.503 177.949 156.175C178.244 154.744 179.472 152.7 180.11 152.7C180.208 152.7 181.633 153.773 183.204 155.102ZM161.249 160.518C159.629 160.824 159.825 160.313 161.937 158.729C164.098 157.094 164.688 156.941 163.902 158.27C163.411 159.087 163.754 160.875 165.572 168.233C166.8 173.189 167.635 177.328 167.389 177.481C167.193 177.635 163.804 175.591 159.874 172.934C155.945 170.277 152.163 168.029 151.475 167.927C150.247 167.773 150.297 167.671 152.654 165.832C154.914 164.094 156.043 163.839 154.57 165.423C153.882 166.087 154.914 167.16 157.91 168.846C159.432 169.715 159.481 169.715 161.741 168.029C162.969 167.109 164 166.036 164 165.73C164 165.423 163.656 164.043 163.214 162.715C162.527 160.569 162.232 160.313 161.249 160.518ZM166.259 174.058C166.112 173.7 165.67 172.065 165.228 170.43C164.835 168.846 164.295 167.518 164.098 167.518C163.509 167.518 160.267 170.43 160.562 170.686C160.857 170.992 165.031 173.854 165.817 174.365C166.21 174.569 166.358 174.467 166.259 174.058ZM137.477 173.189C136.249 173.752 134.678 174.773 133.99 175.489L132.664 176.766L133.744 179.372C134.727 181.774 134.727 181.978 133.892 182.591C132.369 183.715 133.008 183.868 135.316 182.847C136.544 182.284 137.87 181.825 138.263 181.825C138.656 181.825 138.951 181.62 138.951 181.314C138.951 181.058 138.46 180.854 137.87 180.956C137.035 181.058 136.593 180.547 135.807 178.554L134.776 176.102L136.102 174.927C142.045 169.613 150.837 178.606 147.595 186.679C146.171 190.153 141.456 191.635 138.754 189.438C137.035 188.007 136.79 188.365 138.067 190.409C139.196 192.299 139.638 192.35 143.322 191.124C150.788 188.723 152.949 179.985 147.448 174.569C144.746 171.912 141.21 171.401 137.477 173.189ZM113.607 177.89C113.656 177.839 115.866 177.584 118.568 177.328C121.269 177.073 124.167 176.817 124.953 176.817C126.377 176.766 126.377 176.817 125.346 177.328C125.027 177.488 124.787 177.592 124.617 177.763C124.077 178.306 124.222 179.529 124.707 185.35C125.493 194.088 125.591 194.598 126.672 194.598C127.212 194.598 127.654 194.803 127.654 195.058C127.654 195.263 125.739 195.62 123.381 195.774C120.974 195.978 118.371 196.234 117.536 196.438C116.112 196.693 115.964 196.591 115.424 195.058C115.049 193.913 114.865 193.351 114.995 193.265C115.121 193.182 115.538 193.539 116.357 194.241C117.536 195.314 118.175 195.467 119.894 195.263C121.072 195.161 122.3 194.956 122.644 194.803C123.283 194.598 123.43 191.993 122.89 188.774L122.595 186.832L120.336 187.139C118.813 187.343 117.782 187.854 117.241 188.62C116.766 189.225 116.546 189.504 116.445 189.466C116.357 189.434 116.357 189.167 116.357 188.671C116.357 188.058 116.21 186.832 116.063 185.963C115.719 184.175 116.554 183.715 116.996 185.452C117.241 186.423 117.536 186.525 119.795 186.321C121.171 186.168 122.349 185.963 122.497 185.861C122.595 185.708 122.546 184.022 122.349 182.08L122.006 178.503L119.55 178.35C116.505 178.197 114.884 179.014 113.754 181.314L112.87 183.102L113.214 180.547C113.361 179.117 113.558 177.941 113.607 177.89Z" fill="white"/>
</svg>
