<?xml version="1.0" standalone="no"?>
<!DOCTYPE svg PUBLIC "-//W3C//DTD SVG 20010904//EN"
        "http://www.w3.org/TR/2001/REC-SVG-20010904/DTD/svg10.dtd">
<svg version="1.0" xmlns="http://www.w3.org/2000/svg"
     width="619.000000pt" height="488.000000pt" viewBox="0 0 619.000000 488.000000"
     preserveAspectRatio="xMidYMid meet">

    <g transform="translate(0.000000,488.000000) scale(0.100000,-0.100000)"
       fill="#000000" stroke="none">
        <path d="M2640 4280 c-25 -5 -71 -13 -104 -19 -80 -13 -159 -32 -171 -41 -5
-4 -43 -15 -82 -25 -40 -11 -73 -22 -73 -26 0 -3 -25 -14 -55 -24 -30 -9 -55
-20 -55 -24 0 -4 -17 -13 -37 -20 -21 -8 -45 -19 -53 -26 -8 -7 -31 -20 -50
-30 -18 -10 -40 -24 -48 -31 -7 -8 -17 -14 -21 -14 -4 0 -16 -8 -27 -18 -10
-9 -31 -25 -46 -35 -34 -22 -50 -36 -175 -158 -87 -86 -149 -158 -201 -235
-46 -69 -83 -131 -88 -146 -3 -10 -10 -18 -15 -18 -5 0 -9 -7 -9 -16 0 -8 -14
-43 -30 -76 -17 -34 -35 -81 -41 -104 -6 -24 -14 -44 -18 -44 -4 0 -16 -37
-26 -82 -10 -46 -21 -85 -25 -88 -3 -3 -12 -43 -20 -90 -28 -165 -14 -634 20
-660 4 -3 13 -34 20 -70 7 -36 21 -83 31 -105 10 -23 21 -54 25 -70 4 -16 20
-57 36 -90 45 -94 57 -115 115 -203 24 -35 43 -66 43 -68 0 -26 287 -328 323
-340 9 -3 17 -9 17 -14 0 -5 15 -17 33 -26 17 -9 36 -23 40 -30 4 -8 13 -14
18 -14 6 0 29 -13 52 -28 63 -42 78 -50 127 -73 24 -11 47 -24 50 -28 3 -4 32
-15 65 -26 33 -11 69 -25 80 -31 11 -7 45 -17 75 -24 30 -7 62 -17 70 -21 19
-11 189 -39 234 -39 19 0 38 -4 41 -10 8 -13 295 -13 295 0 0 6 16 10 35 10
51 0 237 29 249 39 6 5 35 14 64 20 29 6 72 19 95 30 23 10 60 25 82 32 22 8
46 20 53 26 7 7 18 13 24 13 5 0 37 16 71 35 92 53 98 57 144 92 23 18 45 33
49 33 3 0 17 10 29 23 13 12 40 36 60 52 145 117 291 297 377 465 13 25 29 51
36 58 6 7 12 18 12 24 0 6 11 34 24 62 13 28 30 71 37 96 7 25 16 47 19 50 4
3 15 39 24 80 9 41 21 91 26 110 31 120 40 435 16 570 -28 156 -57 279 -76
316 -11 21 -20 44 -20 52 0 8 -6 26 -14 40 -8 15 -34 68 -58 117 -51 107 -70
132 -112 141 -17 3 -37 11 -45 18 -11 8 -15 8 -18 -1 -3 -7 -12 -13 -22 -13
-32 0 -70 -25 -82 -52 -6 -16 -15 -28 -20 -28 -5 0 -9 -25 -9 -55 0 -42 6 -65
25 -95 14 -22 25 -46 25 -54 0 -7 7 -19 15 -26 8 -7 15 -16 15 -21 0 -5 9 -28
19 -52 34 -76 51 -127 51 -152 0 -14 4 -25 9 -25 33 0 50 -466 22 -623 -8 -42
-18 -77 -22 -77 -5 0 -9 -11 -9 -24 0 -26 -21 -90 -50 -152 -10 -23 -22 -54
-26 -68 -3 -14 -10 -26 -14 -26 -5 0 -14 -17 -20 -37 -7 -21 -17 -42 -24 -48
-6 -5 -20 -27 -31 -48 -11 -21 -28 -45 -37 -54 -10 -9 -18 -20 -18 -25 0 -12
-33 -48 -140 -155 -119 -118 -124 -123 -137 -123 -7 0 -16 -6 -20 -13 -19 -29
-218 -147 -249 -147 -8 0 -14 -4 -14 -8 0 -5 -28 -17 -62 -27 -35 -11 -65 -22
-68 -26 -10 -13 -206 -51 -318 -62 -170 -16 -454 19 -559 68 -17 8 -37 15 -45
15 -29 0 -274 132 -328 177 -8 7 -42 34 -75 61 -73 59 -210 204 -231 243 -8
16 -19 29 -24 29 -6 0 -10 5 -10 10 0 6 -18 39 -40 72 -22 34 -40 67 -40 74 0
6 -6 17 -13 23 -8 6 -19 30 -26 53 -7 24 -17 45 -21 48 -8 5 -41 111 -67 215
-23 95 -29 436 -9 552 17 100 47 205 76 268 10 22 24 56 31 75 7 19 16 37 20
40 4 3 14 22 22 43 9 20 20 37 25 37 6 0 12 11 16 23 6 27 67 110 146 200 60
69 180 176 198 177 6 0 12 4 12 8 0 23 264 171 335 188 17 4 32 11 35 15 3 4
43 15 90 24 47 10 90 22 97 27 31 25 505 25 537 -1 6 -5 42 -14 80 -20 39 -7
88 -20 110 -30 23 -10 59 -25 81 -32 22 -8 42 -17 45 -20 3 -3 26 -14 53 -24
26 -10 47 -21 47 -25 0 -3 16 -14 36 -23 19 -10 40 -22 47 -27 78 -64 103 -80
133 -86 41 -8 108 9 126 32 7 9 21 23 31 32 26 24 24 124 -4 168 -11 19 -24
34 -28 34 -4 0 -18 9 -31 20 -13 11 -29 20 -36 20 -7 0 -19 8 -26 18 -7 9 -53
37 -103 62 -49 25 -91 48 -93 52 -2 4 -27 14 -55 24 -29 9 -54 20 -57 23 -3 4
-34 15 -70 25 -36 10 -72 22 -81 26 -9 5 -54 16 -100 25 -46 9 -97 21 -114 26
-39 14 -396 20 -455 9z"/>
        <path d="M2613 3344 c-12 -9 -104 -99 -205 -201 -158 -159 -299 -299 -450
-444 -35 -33 -38 -41 -38 -89 0 -49 29 -120 49 -120 4 0 151 -144 326 -320
232 -232 329 -323 352 -329 56 -16 111 -2 149 37 31 32 34 40 34 96 0 40 -6
70 -16 84 -8 12 -94 101 -190 197 -96 96 -174 179 -174 184 0 7 202 11 603 13
643 3 606 0 655 50 36 35 44 51 49 89 5 33 0 47 -27 88 -20 29 -45 53 -65 60
-22 8 -204 11 -623 11 -326 0 -592 4 -592 9 0 4 78 86 173 182 94 95 180 185
189 199 40 57 15 174 -44 206 -32 18 -128 17 -155 -2z"/>
    </g>
</svg>
