<?xml version="1.0" standalone="no"?>
<!DOCTYPE svg PUBLIC "-//W3C//DTD SVG 20010904//EN"
        "http://www.w3.org/TR/2001/REC-SVG-20010904/DTD/svg10.dtd">
<svg version="1.0" xmlns="http://www.w3.org/2000/svg"
     width="92.000000pt" height="100.000000pt" viewBox="0 0 92.000000 100.000000"
     preserveAspectRatio="xMidYMid meet">

    <g transform="translate(0.000000,100.000000) scale(0.100000,-0.100000)"
       fill="#000000" stroke="none">
        <path d="M523 800 c-39 -23 -53 -48 -53 -94 0 -38 37 -90 71 -101 19 -6 20
-12 14 -83 -3 -43 -8 -141 -11 -219 l-5 -143 40 0 41 0 0 133 c0 102 -3 138
-15 153 -9 12 -14 43 -15 84 0 65 0 65 38 85 52 28 72 85 48 137 -18 36 -65
68 -103 68 -10 0 -32 -9 -50 -20z m90 -21 c49 -22 61 -86 22 -124 -52 -53
-135 -18 -135 56 0 61 55 94 113 68z"/>
        <path d="M296 741 l-49 -50 57 -62 c53 -59 56 -65 56 -113 0 -29 -7 -59 -15
-70 -12 -15 -15 -51 -15 -153 l0 -133 41 0 40 0 -5 142 c-9 258 -10 264 -71
333 l-53 61 35 47 c19 26 33 47 31 47 -2 0 -26 -22 -52 -49z"/>
    </g>
</svg>
