<?xml version="1.0" standalone="no"?>
<!DOCTYPE svg PUBLIC "-//W3C//DTD SVG 20010904//EN"
        "http://www.w3.org/TR/2001/REC-SVG-20010904/DTD/svg10.dtd">
<svg version="1.0" xmlns="http://www.w3.org/2000/svg"
     width="113.000000pt" height="107.000000pt" viewBox="0 0 113.000000 107.000000"
     preserveAspectRatio="xMidYMid meet">

    <g transform="translate(0.000000,107.000000) scale(0.100000,-0.100000)"
       fill="#000000" stroke="none">
        <path d="M430 908 c-103 -54 -108 -196 -8 -259 43 -26 122 -22 166 9 39 28 67
98 58 146 -12 65 -84 126 -149 126 -12 0 -43 -10 -67 -22z m157 -52 c74 -80
19 -196 -93 -196 -39 0 -51 5 -80 34 -29 29 -34 41 -34 81 0 57 12 80 53 106
50 31 112 21 154 -25z"/>
        <path d="M425 811 c-3 -6 4 -9 15 -8 11 1 20 5 20 9 0 11 -28 10 -35 -1z"/>
        <path d="M538 813 c6 -2 18 -2 25 0 6 3 1 5 -13 5 -14 0 -19 -2 -12 -5z"/>
        <path d="M462 728 c2 -6 12 -16 21 -22 13 -8 22 -6 39 12 l22 22 -43 0 c-28 0
-41 -4 -39 -12z"/>
        <path d="M616 650 c-29 -30 -79 -50 -124 -50 -22 0 -22 -1 9 -40 18 -22 36
-40 41 -40 4 0 31 15 58 33 48 31 50 34 50 80 0 26 -1 47 -2 47 -2 0 -16 -14
-32 -30z"/>
        <path d="M350 530 c0 -77 2 -140 5 -140 10 0 155 100 155 107 0 14 -82 112
-120 142 l-40 32 0 -141z"/>
        <path d="M510 459 c-74 -51 -137 -94 -139 -96 -13 -10 28 -56 66 -74 55 -27
111 -19 159 23 42 37 56 83 52 171 l-3 68 -135 -92z"/>
    </g>
</svg>
