<svg width="24" height="24" viewBox="0 0 24 24" fill="none" xmlns="http://www.w3.org/2000/svg">
<path d="M2.27614 12L6.4714 16.1953C6.73175 16.4556 6.73175 16.8777 6.4714 17.1381C6.21106 17.3984 5.78895 17.3984 5.5286 17.1381L0.195262 11.8047C-0.0650874 11.5444 -0.0650874 11.1223 0.195262 10.8619L5.5286 5.5286C5.78895 5.26825 6.21106 5.26825 6.4714 5.5286C6.73175 5.78895 6.73175 6.21106 6.4714 6.4714L2.27614 10.6667H16.6667C17.0349 10.6667 17.3333 10.9651 17.3333 11.3333C17.3333 11.7015 17.0349 12 16.6667 12H2.27614ZM10 1.33333C9.63181 1.33333 9.33333 1.03486 9.33333 0.666667C9.33333 0.298477 9.63181 0 10 0H20.6667C22.5076 0 24 1.49238 24 3.33333V20.6667C24 22.5076 22.5076 24 20.6667 24H10C9.63181 24 9.33333 23.7015 9.33333 23.3333C9.33333 22.9651 9.63181 22.6667 10 22.6667H20.6667C21.7712 22.6667 22.6667 21.7712 22.6667 20.6667V3.33333C22.6667 2.22876 21.7712 1.33333 20.6667 1.33333H10Z" fill="#98B7BA"/>
</svg>
