<?xml version="1.0" standalone="no"?>
<!DOCTYPE svg PUBLIC "-//W3C//DTD SVG 20010904//EN"
        "http://www.w3.org/TR/2001/REC-SVG-20010904/DTD/svg10.dtd">
<svg version="1.0" xmlns="http://www.w3.org/2000/svg"
     width="108.000000pt" height="97.000000pt" viewBox="0 0 108.000000 97.000000"
     preserveAspectRatio="xMidYMid meet">

    <g transform="translate(0.000000,97.000000) scale(0.100000,-0.100000)"
       fill="#000000" stroke="none">
        <path d="M130 550 l0 -260 300 0 300 0 0 260 0 260 -300 0 -300 0 0 -260z
m339 60 c13 -49 27 -90 31 -90 4 0 13 7 20 15 28 34 87 -6 64 -42 -15 -24 -48
-28 -64 -8 -7 8 -21 15 -31 15 -14 0 -22 12 -30 46 -14 56 -20 47 -44 -66 -25
-121 -30 -125 -51 -36 -12 51 -21 73 -28 66 -13 -13 -186 -13 -186 0 0 6 33
10 79 10 l79 0 17 45 c10 24 21 43 25 40 3 -2 12 -30 19 -61 16 -70 22 -61 47
64 10 50 21 92 24 92 3 0 16 -40 29 -90z"/>
        <path d="M540 510 c0 -5 5 -10 10 -10 6 0 10 5 10 10 0 6 -4 10 -10 10 -5 0
-10 -4 -10 -10z"/>
        <path d="M130 205 l0 -55 298 2 297 3 3 53 3 52 -300 0 -301 0 0 -55z m108 18
c-2 -22 -8 -28 -28 -28 -20 0 -26 6 -28 28 -3 24 0 27 28 27 28 0 31 -3 28
-27z m92 -3 c0 -25 -4 -30 -25 -30 -21 0 -25 5 -25 30 0 25 4 30 25 30 21 0
25 -5 25 -30z m98 3 c-2 -22 -8 -28 -28 -28 -20 0 -26 6 -28 28 -3 24 0 27 28
27 28 0 31 -3 28 -27z"/>
    </g>
</svg>
