<?xml version="1.0" encoding="UTF-8"?><!DOCTYPE svg PUBLIC "-//W3C//DTD SVG 1.1//EN" "http://www.w3.org/Graphics/SVG/1.1/DTD/svg11.dtd"><svg xmlns="http://www.w3.org/2000/svg" xmlns:xlink="http://www.w3.org/1999/xlink"><defs/><symbol id="dentistry" viewBox="0 0 92.000000 100.000000">

<g transform="translate(0.000000,100.000000) scale(0.100000,-0.100000)" fill="#000000" stroke="none">
<path d="M523 800 c-39 -23 -53 -48 -53 -94 0 -38 37 -90 71 -101 19 -6 20
-12 14 -83 -3 -43 -8 -141 -11 -219 l-5 -143 40 0 41 0 0 133 c0 102 -3 138
-15 153 -9 12 -14 43 -15 84 0 65 0 65 38 85 52 28 72 85 48 137 -18 36 -65
68 -103 68 -10 0 -32 -9 -50 -20z m90 -21 c49 -22 61 -86 22 -124 -52 -53
-135 -18 -135 56 0 61 55 94 113 68z"/>
<path d="M296 741 l-49 -50 57 -62 c53 -59 56 -65 56 -113 0 -29 -7 -59 -15
-70 -12 -15 -15 -51 -15 -153 l0 -133 41 0 40 0 -5 142 c-9 258 -10 264 -71
333 l-53 61 35 47 c19 26 33 47 31 47 -2 0 -26 -22 -52 -49z"/>
</g>
</symbol><symbol id="pediatrics (2)" viewBox="0 0 113.000000 107.000000">

<g transform="translate(0.000000,107.000000) scale(0.100000,-0.100000)" fill="#000000" stroke="none">
<path d="M430 908 c-103 -54 -108 -196 -8 -259 43 -26 122 -22 166 9 39 28 67
98 58 146 -12 65 -84 126 -149 126 -12 0 -43 -10 -67 -22z m157 -52 c74 -80
19 -196 -93 -196 -39 0 -51 5 -80 34 -29 29 -34 41 -34 81 0 57 12 80 53 106
50 31 112 21 154 -25z"/>
<path d="M425 811 c-3 -6 4 -9 15 -8 11 1 20 5 20 9 0 11 -28 10 -35 -1z"/>
<path d="M538 813 c6 -2 18 -2 25 0 6 3 1 5 -13 5 -14 0 -19 -2 -12 -5z"/>
<path d="M462 728 c2 -6 12 -16 21 -22 13 -8 22 -6 39 12 l22 22 -43 0 c-28 0
-41 -4 -39 -12z"/>
<path d="M616 650 c-29 -30 -79 -50 -124 -50 -22 0 -22 -1 9 -40 18 -22 36
-40 41 -40 4 0 31 15 58 33 48 31 50 34 50 80 0 26 -1 47 -2 47 -2 0 -16 -14
-32 -30z"/>
<path d="M350 530 c0 -77 2 -140 5 -140 10 0 155 100 155 107 0 14 -82 112
-120 142 l-40 32 0 -141z"/>
<path d="M510 459 c-74 -51 -137 -94 -139 -96 -13 -10 28 -56 66 -74 55 -27
111 -19 159 23 42 37 56 83 52 171 l-3 68 -135 -92z"/>
</g>
</symbol><symbol id="sign_in" viewBox="0 0 24 24">
<path d="M2.27614 12L6.4714 16.1953C6.73175 16.4556 6.73175 16.8777 6.4714 17.1381C6.21106 17.3984 5.78895 17.3984 5.5286 17.1381L0.195262 11.8047C-0.0650874 11.5444 -0.0650874 11.1223 0.195262 10.8619L5.5286 5.5286C5.78895 5.26825 6.21106 5.26825 6.4714 5.5286C6.73175 5.78895 6.73175 6.21106 6.4714 6.4714L2.27614 10.6667H16.6667C17.0349 10.6667 17.3333 10.9651 17.3333 11.3333C17.3333 11.7015 17.0349 12 16.6667 12H2.27614ZM10 1.33333C9.63181 1.33333 9.33333 1.03486 9.33333 0.666667C9.33333 0.298477 9.63181 0 10 0H20.6667C22.5076 0 24 1.49238 24 3.33333V20.6667C24 22.5076 22.5076 24 20.6667 24H10C9.63181 24 9.33333 23.7015 9.33333 23.3333C9.33333 22.9651 9.63181 22.6667 10 22.6667H20.6667C21.7712 22.6667 22.6667 21.7712 22.6667 20.6667V3.33333C22.6667 2.22876 21.7712 1.33333 20.6667 1.33333H10Z" fill="#98B7BA"/>
</symbol><symbol id="ultrasound" viewBox="0 0 108.000000 97.000000">

<g transform="translate(0.000000,97.000000) scale(0.100000,-0.100000)" fill="#000000" stroke="none">
<path d="M130 550 l0 -260 300 0 300 0 0 260 0 260 -300 0 -300 0 0 -260z
m339 60 c13 -49 27 -90 31 -90 4 0 13 7 20 15 28 34 87 -6 64 -42 -15 -24 -48
-28 -64 -8 -7 8 -21 15 -31 15 -14 0 -22 12 -30 46 -14 56 -20 47 -44 -66 -25
-121 -30 -125 -51 -36 -12 51 -21 73 -28 66 -13 -13 -186 -13 -186 0 0 6 33
10 79 10 l79 0 17 45 c10 24 21 43 25 40 3 -2 12 -30 19 -61 16 -70 22 -61 47
64 10 50 21 92 24 92 3 0 16 -40 29 -90z"/>
<path d="M540 510 c0 -5 5 -10 10 -10 6 0 10 5 10 10 0 6 -4 10 -10 10 -5 0
-10 -4 -10 -10z"/>
<path d="M130 205 l0 -55 298 2 297 3 3 53 3 52 -300 0 -301 0 0 -55z m108 18
c-2 -22 -8 -28 -28 -28 -20 0 -26 6 -28 28 -3 24 0 27 28 27 28 0 31 -3 28
-27z m92 -3 c0 -25 -4 -30 -25 -30 -21 0 -25 5 -25 30 0 25 4 30 25 30 21 0
25 -5 25 -30z m98 3 c-2 -22 -8 -28 -28 -28 -20 0 -26 6 -28 28 -3 24 0 27 28
27 28 0 31 -3 28 -27z"/>
</g>
</symbol></svg>